<svg width="135" height="135" viewBox="0 0 135 135" fill="none" xmlns="http://www.w3.org/2000/svg">
<path d="M77.2872 23.7937C72.5622 18.1687 68.456 12.5437 67.6685 11.3062H67.4997C66.7122 12.4874 62.606 18.1687 57.881 23.7937C17.381 75.4874 64.2935 110.362 64.2935 110.362L64.6872 110.644C65.0247 115.987 65.9247 123.75 65.9247 123.75H69.4122C69.4122 123.75 70.256 116.044 70.5935 110.644L70.9872 110.306C70.9872 110.306 117.787 75.4874 77.2872 23.7937ZM67.4997 109.575C66.5144 108.765 65.6101 107.86 64.7997 106.875L67.4997 50.6249L70.031 106.875C69.2714 107.85 68.4241 108.754 67.4997 109.575Z" fill="white"/>
</svg>
