<svg width="130" height="134" viewBox="0 0 130 134" fill="none" xmlns="http://www.w3.org/2000/svg">
<path d="M128.987 33.8607L129.347 33.6443C128.627 32.4543 127.547 31.3725 126.467 30.8316L68.513 0.757268C67.5531 0.216362 66.2332 0 64.7934 0C63.3535 0 62.0336 0.324543 61.0737 0.757268L3.47964 30.9398C1.43985 32.0216 0 34.7261 0 36.7816V97.0384C0 98.2284 0.239975 99.5266 1.07989 100.717L0.839914 100.825C1.43985 101.69 2.27977 102.447 3.11968 102.88L60.9537 133.063C61.9136 133.604 63.2335 133.82 64.6734 133.82C66.1132 133.82 67.4331 133.495 68.393 133.063L125.987 102.88C128.027 101.798 129.467 99.0939 129.467 97.0384V36.6734C129.587 35.8079 129.467 34.8343 128.987 33.8607ZM64.7934 109.587C38.636 109.587 17.3982 90.4394 17.3982 66.8559C17.3982 43.2724 38.636 24.1244 64.7934 24.1244C82.4315 24.1244 97.79 32.8871 105.949 45.7606L90.3507 53.8742C85.3112 45.7606 75.7122 40.3515 64.7934 40.3515C48.595 40.3515 35.3964 52.2515 35.3964 66.8559C35.3964 81.4604 48.595 93.3603 64.7934 93.3603C75.7122 93.3603 85.3112 87.9512 90.3507 79.9458L105.829 88.1676C97.67 100.933 82.3116 109.587 64.7934 109.587ZM125.987 64.6923H122.147L121.068 69.0195H125.987V74.4286H119.988L118.548 80.9195H112.668L114.108 74.4286H109.549L108.109 80.9195H102.35L103.789 74.4286H100.79V69.0195H104.989L106.069 64.6923H100.79V59.2832H107.149L108.589 52.7924H114.468L113.028 59.2832H117.588L119.028 52.7924H124.787L123.347 59.2832H125.987V64.6923ZM110.749 69.0195H115.308L116.388 64.6923H111.829L110.749 69.0195Z" fill="white"/>
</svg>
