<svg width="132" height="135" viewBox="0 0 132 135" fill="none" xmlns="http://www.w3.org/2000/svg">
<path d="M53.5104 0V0.00210937C53.0295 -0.0590624 45.2639 2.55445 40.2568 4.45605C33.498 7.02948 28.2517 9.48268 25.0145 11.6068C23.9693 12.2997 22.6961 13.4525 22.2209 14.1064L22.213 14.0843C22.1825 14.1342 22.1564 14.1864 22.1351 14.2404C22.1102 14.2826 22.0764 14.3311 22.0606 14.3669C21.9711 14.5893 21.927 14.8254 21.9308 15.063L22.003 15.1263C22.0222 15.3446 22.0764 15.5904 22.1926 15.8593C22.4771 16.5132 23.3078 17.3106 24.2492 18.1269C24.2492 18.1269 33.98 26.9957 35.1617 28.2624C40.5413 34.0663 42.8823 39.787 43.1012 47.6749C43.2333 52.7427 42.2028 57.1988 39.6439 62.3688C35.0952 71.6458 25.4953 81.8847 10.6898 93.2458L10.9144 93.1751C10.8128 93.2511 10.6796 93.3587 10.5814 93.4304C8.80929 94.7382 6.18386 97.1903 4.8497 98.7439C2.85862 101.074 1.2863 103.546 0.607936 105.446C-0.59529 108.879 -0.00496374 112.352 2.31232 115.561C5.28765 119.648 11.2146 123.819 18.1258 126.657C21.6475 128.109 27.571 129.969 32.034 131.01C39.4464 132.768 53.7959 134.669 61.6892 134.953C63.2852 135.016 65.4275 135.016 65.5155 134.953C65.6905 134.851 66.9163 132.667 68.3385 129.95C73.192 120.692 76.69 112.007 78.5941 104.588C79.7308 100.093 80.627 94.1043 81.2173 87.0137C81.3708 85.0309 81.4363 78.3895 81.3054 76.142C81.1078 72.4643 80.7602 69.4806 80.2127 66.5591C80.1709 66.3597 80.1445 66.1577 80.1337 65.9548C97.7171 61.0737 117.12 56.6514 130.009 54.8088L132 54.523L131.693 54.0716C129.943 51.5372 128.741 49.9647 127.298 48.2888C123.099 43.4267 118.005 39.4832 111.771 36.2137C103.198 31.7376 92.1096 28.2434 78.0693 25.6478C75.4235 25.1574 69.6095 24.2166 64.8857 23.5427L64.4455 22.8055C61.8641 18.5551 59.022 13.2848 57.3594 9.72947C56.0703 6.97042 54.8445 3.7821 54.1673 1.49343C53.7948 0.103359 53.7531 0.0210937 53.5104 0ZM53.1605 1.04203H53.183C53.2034 1.06312 53.2903 1.63687 53.3783 2.31082C53.7508 5.17112 54.4292 7.93018 55.5015 10.9139C56.3096 13.1604 56.3096 13.0391 55.3694 12.7733C53.139 12.2017 43.1453 10.588 35.9056 9.64721C34.7464 9.50483 33.7621 9.36139 33.7621 9.34029C33.6752 9.25803 38.9881 6.66456 41.328 5.64257C44.3236 4.35585 52.5476 1.14433 53.1605 1.04203ZM32.0781 10.1988L32.9314 10.4646C37.5682 11.9359 49.2235 14.022 55.6527 14.5125C56.3751 14.5736 56.9869 14.6338 57.0072 14.6338C57.0298 14.6549 56.4202 14.9607 55.6313 15.3077C52.5273 16.759 49.1128 18.5361 46.7515 19.9061C46.2143 20.2183 45.7221 20.482 45.4795 20.5896L43.2988 20.2573L41.24 18.3726C38.5807 15.9526 35.9055 13.5479 33.2147 11.1586L32.0781 10.1988ZM31.2033 10.8337L34.287 14.4302C35.971 16.413 37.6766 18.3536 38.0479 18.7829C38.3764 19.1615 38.6157 19.4389 38.6608 19.5212C36.4767 19.1657 34.1391 18.7745 32.3399 18.4116C31.0272 18.1459 28.5135 17.5943 26.545 16.9615C26.3419 16.8876 26.1105 16.8075 25.8904 16.7305V16.5143C25.9129 15.1432 27.7708 13.0992 30.9188 11.0162L31.2033 10.8337ZM57.3594 15.7338C57.3774 15.7268 57.3925 15.7282 57.4045 15.738C57.4914 15.738 57.5986 15.9194 57.8605 16.471C58.6055 18.0035 60.925 22.1315 61.4939 22.9289L61.5661 23.0385C57.433 22.4272 53.3029 21.7979 49.1761 21.1507C49.3094 21.0596 49.4498 20.9779 49.5959 20.906C51.8929 19.7205 54.2102 18.2091 56.2667 16.5944C56.769 16.2063 57.2273 15.8403 57.3165 15.7792C57.3257 15.7604 57.3406 15.7447 57.3594 15.7338ZM27.8566 19.1879C27.8781 19.1689 28.228 19.2934 28.6874 19.4357C29.735 19.7639 30.7927 20.0632 31.8591 20.3333C32.8188 20.5799 33.7809 20.8183 34.7452 21.0484C36.0568 21.3542 37.1517 21.6421 37.172 21.6421C37.3266 21.7856 39.5356 28.3858 40.2794 30.9202C40.5639 31.88 40.7828 32.6974 40.7614 32.6974C40.7388 32.7185 40.4973 32.3704 40.2128 31.9C37.654 27.6918 33.6086 23.4203 28.9278 19.9852C28.316 19.5771 27.8555 19.209 27.8555 19.1879H27.8566ZM38.5942 21.9491C38.5942 21.9891 38.5942 21.9702 38.6168 21.9702C38.7274 21.9702 39.2082 22.0303 39.7986 22.1526C43.5155 22.9289 50.1863 24.1143 54.4495 24.7893C55.1719 24.8916 55.7396 25.015 55.7396 25.0551C55.7396 25.0973 55.48 25.2397 55.1504 25.4032C54.428 25.7512 51.5193 27.3649 50.5565 27.9766C48.1297 29.4901 45.9434 31.1227 44.3688 32.594C43.9784 32.9588 43.5845 33.3202 43.187 33.6782C43.187 33.6782 43.0572 33.3302 42.9466 32.9009C42.1599 30.0596 40.5198 25.8514 39.031 22.8877C38.7906 22.4184 38.5942 21.9891 38.5942 21.9491ZM57.5569 25.3399C57.6867 25.3821 57.9068 26.0771 58.3436 27.6096C59.1639 30.6671 59.5173 33.8177 59.3933 36.9678C59.3482 37.8263 59.3041 38.6236 59.2601 38.727L59.1958 38.9284L58.0592 38.5804C55.7193 37.8864 51.9144 36.8454 48.6568 35.9869C46.7967 35.5165 45.2876 35.0883 45.2876 35.0483C45.2876 34.9249 47.9999 32.3904 49.1591 31.4307C51.3669 29.6113 57.3582 25.2798 57.5569 25.3399ZM59.0637 25.5455C59.1292 25.4844 68.1207 26.9335 72.21 27.6697C75.2508 28.2213 79.6676 29.0808 79.9306 29.1831C80.0604 29.2253 79.6021 29.4669 78.1359 30.0817C72.3624 32.5128 68.0744 34.7013 63.81 37.357C62.6949 38.0531 61.7535 38.6236 61.7332 38.6236C61.7106 38.6236 61.6892 38.0309 61.6892 37.3158C61.6892 33.4335 60.8607 29.5101 59.329 26.1994C59.1755 25.8725 59.0423 25.5656 59.0637 25.5455ZM82.3111 29.836C82.3765 29.8961 82.0932 31.5541 81.8302 32.5349C81.0424 35.5798 78.9226 40.097 76.322 44.3474C75.8604 45.1026 75.4439 45.7153 75.3998 45.7354C75.3558 45.7554 74.77 45.4475 74.0905 45.0794C71.5543 43.6893 68.6658 42.3846 65.5167 41.158C64.6419 40.81 63.8755 40.5242 63.8541 40.482C63.7006 40.3607 70.7438 36.008 74.4607 33.9229C77.4146 32.247 82.2253 29.7548 82.3111 29.836ZM83.9759 30.0817C84.1723 30.0817 88.1522 31.1027 90.2291 31.6754C95.3693 33.1055 101.273 35.1295 105.122 36.7642L106.718 37.4371L105.605 37.6829C96.2023 39.7057 88.1511 42.0377 80.3866 44.9792C79.7522 45.2249 79.1833 45.4274 79.1404 45.4274C79.0976 45.4274 79.3177 44.9591 79.6021 44.3875C81.942 39.7479 83.4488 34.9048 83.8213 30.7757C83.8427 30.3876 83.9105 30.0817 83.9759 30.0817ZM44.3462 38.5825C44.4117 38.5213 47.4514 39.1963 49.0925 39.6256C51.587 40.2795 56.8796 41.9353 56.8796 42.0556C56.8796 42.0767 56.2871 42.5471 55.5872 43.1187C52.7225 45.3462 49.9662 47.6971 46.6635 50.6808C45.6804 51.5594 44.8508 52.2734 44.8067 52.2734C44.7616 52.2734 44.7401 52.1521 44.7616 51.9886C45.2639 48.5556 45.1567 44.1418 44.4568 39.6667C44.3891 39.094 44.3248 38.6025 44.3462 38.5825ZM108.228 38.6447C108.271 38.6859 106.828 40.8089 105.908 42.0145C104.597 43.7726 102.672 46.1035 98.321 51.2113C96.4035 53.4602 94.4937 55.7148 92.5915 57.975C91.7168 58.997 90.9944 59.8555 90.9707 59.8555C90.9504 59.8555 90.6659 59.4864 90.36 59.0381C87.9107 55.6041 84.9794 52.6014 81.5018 49.9046C80.9724 49.4851 80.4339 49.0758 79.8865 48.6769C79.645 48.5134 79.4463 48.3499 79.4463 48.3289C79.4463 48.2687 83.1644 46.7764 85.9862 45.7143C90.93 43.8338 97.6629 41.5873 102.716 40.135C105.362 39.3598 108.184 38.6036 108.228 38.6447ZM109.912 39.0529C109.999 39.0318 110.525 39.2786 111.158 39.6256C116.473 42.4659 121.678 46.1246 125.79 49.8835C126.949 50.9466 129.813 53.7236 129.769 53.7436C129.769 53.7436 128.763 53.828 127.582 53.9092C118.375 54.5631 106.588 56.3803 95.261 58.9348C94.4934 59.0982 93.8162 59.2417 93.7722 59.2417C93.7282 59.2417 94.5804 58.4443 95.6526 57.4846C102.301 51.4971 105.341 47.7171 108.927 40.9724C109.43 39.9726 109.868 39.1141 109.912 39.0529ZM61.2094 43.7125C61.5142 43.7737 64.3563 45.0192 66.4998 46.0212C68.4683 46.9398 71.4222 48.4111 71.5746 48.5345C71.5972 48.5546 70.5474 49.065 69.2562 49.6588C65.4006 51.45 61.628 53.393 57.9485 55.4828C56.8988 56.0755 56.0252 56.5659 56.0037 56.5659C55.9157 56.5659 55.9383 56.4837 56.5286 55.4828C58.4971 52.132 60.0728 48.1264 60.969 44.223C61.0559 43.9171 61.144 43.7125 61.2094 43.7125ZM58.365 44.2019C58.4305 44.263 57.6878 46.7774 57.2273 48.1464C56.3299 50.7409 54.822 53.9893 53.3557 56.4425C53.0058 57.0142 52.481 57.8537 52.1965 58.3231L51.6502 59.1394L50.4267 58.0372C49.0045 56.7505 47.8453 55.9511 46.3587 55.2349C45.7673 54.9502 45.309 54.7055 45.309 54.6654C45.309 54.5009 49.0496 51.3336 51.9144 49.045C53.9686 47.3891 58.2996 44.1407 58.365 44.2019ZM75.752 50.8844L76.8243 51.5383C79.2736 53.0296 82.1587 55.0135 84.3676 56.7484C85.6137 57.7082 88.019 59.7332 88.501 60.2225L88.764 60.4883L86.9919 60.9598C76.9755 63.5543 69.2336 65.863 60.2015 68.969C59.1947 69.3171 58.3425 69.6019 58.277 69.6019C58.1461 69.6019 58.0366 69.7031 60.2895 67.7614C66.063 62.797 71.1818 57.3222 74.9879 51.9886L75.752 50.8844ZM71.1806 51.9475C71.2258 51.9897 68.2301 55.931 66.4366 58.1585C64.292 60.8153 60.4859 65.2703 57.8605 68.1717C56.7679 69.3783 55.8288 70.3781 55.7836 70.3981C55.7182 70.4192 55.6956 70.1134 55.6956 69.643C55.6956 67.1708 55.0195 64.5341 53.8388 62.2866C53.3354 61.3468 53.2485 61.1222 53.3591 61.0199C53.7745 60.6718 60.136 57.281 64.1588 55.2581C66.8723 53.9081 71.1163 51.9074 71.1806 51.9475ZM43.5381 58.2819C43.6024 58.2819 44.1047 58.5277 44.6747 58.8135C46.0055 59.4913 47.2648 60.2851 48.4356 61.1844C48.4808 61.2245 47.9119 61.6548 47.168 62.1653C45.0912 63.5543 41.942 65.7828 40.1045 67.1518C38.18 68.582 38.1145 68.6221 38.3323 68.3162C39.7771 66.2522 40.4995 65.0868 41.2648 63.5944C41.9688 62.2066 42.5821 60.7801 43.1012 59.3229C43.2762 58.7323 43.494 58.2819 43.5381 58.2819ZM50.9087 63.6745C51.0181 63.6555 51.1491 63.8401 51.7383 64.6575C52.9844 66.3946 53.9472 68.7254 54.1876 70.6049L54.2316 71.012L51.236 72.0962C45.8779 74.0368 40.9352 75.9584 37.5896 77.3907C36.367 77.9255 35.149 78.4697 33.9359 79.0234C32.8637 79.5338 31.99 79.923 31.99 79.903C31.99 79.8829 32.6673 79.4125 33.498 78.8398C40.0379 74.406 45.703 69.5417 49.9459 64.6786C50.4052 64.1681 50.8206 63.6977 50.8635 63.6766L50.9087 63.6745ZM47.5191 64.4518V64.4539C47.6071 64.5351 45.1126 67.1708 43.4071 68.7855C39.1857 72.8102 35.0082 75.9585 29.8251 79.0234C29.1682 79.4115 28.579 79.7585 28.5135 79.7986C28.3611 79.8808 28.5564 79.6762 30.8319 77.3675C32.1656 76.0304 33.4283 74.6331 34.6154 73.1804C35.4462 72.1785 35.5986 72.035 36.8018 71.2398C40.0187 69.0714 47.4322 64.3706 47.5191 64.4518ZM76.8367 66.8776C77.146 67.9924 77.7171 73.3386 77.8729 76.8771C77.918 77.7156 77.8943 78.2672 77.8492 78.2672C77.6754 78.2672 74.1549 76.3265 71.6412 74.8542C69.4627 73.5727 65.344 71.0215 64.6656 70.5163C68.7019 69.2437 72.7595 68.0306 76.8367 66.8776ZM62.3133 71.2988C62.6 71.4149 63.0301 71.6364 63.8981 72.1373C68.4028 74.774 74.5285 77.9613 77.1528 79.0244C77.9609 79.3514 78.0478 79.228 76.1888 80.4145C72.2089 82.9479 67.2448 85.4401 61.1654 87.9534C60.0931 88.4027 59.1958 88.7507 59.1743 88.7507C59.1292 88.7507 59.2613 88.2382 59.4362 87.6254C60.9002 82.5365 61.7343 77.3897 61.7783 73.2616C61.7896 72.2312 61.7941 71.7218 61.8223 71.4613L62.3133 71.2988ZM58.9667 72.4115C59.0728 72.9136 58.9904 77.0184 58.8233 78.206C58.4319 81.218 57.7596 84.1922 56.8142 87.0949C56.5726 87.8511 56.3514 88.486 56.3085 88.5261C56.2205 88.6284 53.2248 85.8894 52.2406 84.8262C50.5362 82.9869 49.202 81.1496 48.2178 79.3514C47.7618 78.5182 47.1037 77.0258 47.027 76.6957C50.2426 75.4759 53.4756 74.2963 56.725 73.1572C57.4214 72.9125 58.2409 72.6583 58.9667 72.4115ZM44.7413 77.5795C44.7943 77.6523 44.9253 77.9244 45.0472 78.2672C45.747 80.0443 47.3193 82.6599 48.676 84.3358C50.1637 86.1752 52.1108 88.138 53.7294 89.4247C54.2542 89.8328 54.7339 90.222 54.8005 90.2832C54.9314 90.4066 54.9755 90.3855 51.4098 91.6532C47.2787 93.1245 42.7728 94.5958 37.6111 96.1483C36.3778 96.5198 35.1456 96.8946 33.9145 97.2726C33.717 97.3338 33.7858 97.2304 34.3536 96.393C36.9124 92.6552 40.8031 85.3188 42.9906 80.1276C43.3631 79.228 43.7345 78.3283 43.7999 78.1237C43.8304 78.0235 43.8744 77.9655 43.9162 77.9012L44.7413 77.5795ZM40.2151 79.3725C40.0661 79.7838 39.1168 81.6411 38.1359 83.4362C36.0139 87.2995 33.6967 91.1006 30.5915 95.719C30.0655 96.5153 29.5644 97.2515 29.4967 97.3327C29.3883 97.4761 29.3443 97.4361 28.9932 96.8032C28.2494 95.4322 27.6388 93.6761 27.3092 92.0614C26.9818 90.4678 27.0473 87.6887 27.4198 85.9716C27.5891 85.2154 27.6636 84.9307 27.8261 84.7482C31.9034 82.8525 36.0346 81.0595 40.2151 79.3714V79.3725ZM78.0038 80.6381V81.4955C78.0038 86.0528 77.479 92.3061 76.7137 96.8623C76.5827 97.6597 76.4733 98.3146 76.4518 98.3357C76.4518 98.3357 75.8163 98.1712 75.0736 97.9666C71.589 96.9326 68.22 95.5847 65.0144 93.9419C62.8924 92.8587 59.811 91.0795 59.8979 90.9983C59.9193 90.9772 60.837 90.5289 61.907 89.9963C66.195 87.9133 70.3059 85.6647 73.8715 83.4362C75.2057 82.5987 77.216 81.2519 77.6528 80.8838L78.0038 80.6381ZM23.7706 86.6888C23.8541 86.693 23.8293 86.8607 23.7006 87.5863C23.5916 88.3111 23.5114 89.0393 23.4602 89.7696C23.2853 92.7543 23.8101 94.9639 25.3847 97.9877C25.8226 98.8251 26.1725 99.5201 26.15 99.5402C25.9976 99.6636 11.5194 103.627 6.97059 104.791C5.61498 105.139 4.43433 105.445 4.34629 105.465C4.19278 105.508 4.17134 105.488 4.2368 105.139C4.74022 102.136 7.19069 98.2123 10.6028 94.9017C12.8761 92.6942 14.6911 91.4064 17.7962 89.7516C18.8358 89.199 20.1282 88.525 21.2468 87.9481C22.0798 87.5248 22.921 87.1051 23.7706 86.6888ZM57.882 92.3883H57.8842C57.9068 92.3672 58.4294 92.633 59.0637 92.979C63.7446 95.5144 70.2619 97.8653 75.8163 99.0708L76.3186 99.1721L75.6199 99.5412C72.7123 101.053 63.1531 104.772 53.3783 108.184C51.9561 108.675 50.5588 109.165 50.2969 109.268C50.0339 109.37 49.7912 109.431 49.7912 109.41C49.7912 109.389 50.1863 108.674 50.6886 107.795C53.4223 103.013 56.1776 97.1903 57.5783 93.1445C57.7533 92.7564 57.8594 92.4094 57.882 92.3883ZM54.4055 93.4493H54.4077C54.4303 93.4704 54.2542 93.9008 54.0352 94.3912C52.1322 98.7027 49.6388 103.403 46.4457 108.675C45.6375 110.025 44.9591 111.107 44.9377 111.107C44.9162 111.107 44.2593 110.738 43.4703 110.29C38.8358 107.632 34.7227 104.362 32.034 101.195L31.639 100.746L33.6301 100.235C40.7591 98.4169 46.8181 96.4552 52.832 94.0442C53.6853 93.7172 54.384 93.4493 54.4055 93.4493ZM76.0127 100.501C76.0353 100.971 74.9213 105.181 74.0025 108.225C73.2372 110.78 72.5803 112.782 71.3759 116.317C70.8522 117.872 70.3939 119.157 70.3714 119.157C70.3488 119.157 70.219 119.138 70.0869 119.098C63.5922 117.994 57.7747 116.46 52.3072 114.418C50.7766 113.845 48.5902 112.925 48.4582 112.823C48.4153 112.782 49.7269 112.21 51.3895 111.536C61.3404 107.469 71.6615 102.851 75.2057 100.869C75.6211 100.623 75.9473 100.501 76.0127 100.501ZM26.1297 102.094C26.1748 102.136 23.3947 105.875 19.504 110.963C18.1461 112.742 16.5727 114.825 15.9824 115.601C15.2991 116.501 14.6353 117.414 13.9913 118.339L13.0725 119.669L12.0894 118.89C10.9302 117.991 8.91877 116.071 8.02143 115.009C6.14097 112.823 4.87115 110.512 4.36886 108.407C4.12732 107.426 4.12732 106.937 4.34629 106.878C8.22204 106.012 12.1011 105.16 15.9835 104.321C18.5953 103.759 21.2045 103.187 23.8112 102.605C25.0799 102.319 26.1082 102.094 26.1297 102.094ZM28.9278 103.096L29.6287 103.831C32.7779 107.121 35.9914 109.552 39.8843 111.677C40.5842 112.047 41.1102 112.373 41.0661 112.394C40.9138 112.495 27.5507 116.929 21.3619 118.933C19.245 119.633 17.1233 120.321 14.997 120.996C14.9755 120.996 14.778 120.872 14.5602 120.73L14.1651 120.464L14.8006 119.606C16.8549 116.826 19.4363 113.783 25.0562 107.447L28.9278 103.096ZM46.3813 114.762C46.4028 114.741 47.3633 115.068 48.5462 115.48C51.3895 116.481 53.6402 117.114 56.6584 117.829C60.3764 118.708 65.7571 119.565 68.93 119.812C69.4108 119.851 69.6715 119.892 69.5846 119.954C69.4311 120.035 66.2154 121.038 63.8541 121.732C60.092 122.836 48.6117 126.003 39.2511 128.517C38.1528 128.817 37.0523 129.11 35.9496 129.396C35.7306 129.436 35.0082 129.251 35.0082 129.169C35.0082 129.129 35.5331 128.497 36.1674 127.802C39.3166 124.286 42.4443 120.362 45.0472 116.643C45.7696 115.621 46.3813 114.782 46.3813 114.762ZM42.5301 114.866H42.5324C42.5538 114.887 41.0007 117.215 38.2883 121.22C37.1303 122.916 35.839 124.84 35.3807 125.513C34.9428 126.167 34.2847 127.19 33.9134 127.76L33.2813 128.801L32.9539 128.721C32.165 128.516 26.6319 126.697 25.1657 126.146C23.4285 125.5 21.7283 124.77 20.0718 123.96C18.3222 123.081 16.1359 121.773 16.3108 121.732C16.3537 121.711 19.3494 120.956 22.9579 120.036C32.5352 117.604 37.8504 116.195 41.328 115.173C41.9623 114.988 42.5087 114.845 42.5301 114.866ZM69.7585 120.831H69.7822C69.8691 121.037 66.3249 130.232 65.0336 133.133C64.7514 133.787 64.6408 133.951 64.4873 133.93C64.1148 133.909 58.9779 133.237 55.8502 132.808C50.4052 132.032 41.2614 130.541 38.9667 130.049L38.443 129.947L41.7005 129.252C48.6986 127.78 52.0667 126.984 55.4789 126.003C59.8854 124.744 64.1903 123.193 68.3611 121.363C69.0383 121.078 69.6049 120.853 69.7585 120.833V120.831Z" fill="white"/>
</svg>
