<svg width="129" height="130" viewBox="0 0 129 130" fill="none" xmlns="http://www.w3.org/2000/svg">
<path d="M126.613 47.9786C124.315 39.2273 120.121 32.349 111.325 32.349H99.6067V46.1056C99.6067 56.7298 90.3881 65.6878 80.5462 65.6878H49.3262C40.7438 65.6878 34.0375 72.9859 34.0375 81.524V110.91C34.0375 119.029 41.3735 124.034 49.3262 126.74C58.9668 129.659 68.3867 130.286 80.3255 126.74C88.0769 124.447 95.6206 120.075 95.6206 110.904V99.2332H64.8291V95.4873H111.325C120.121 95.4873 123.686 89.2355 126.613 79.8577C129.756 69.6468 129.756 60.2691 126.613 47.9786ZM82.2082 106.318C85.3568 106.318 88.0769 109.031 88.0769 112.157C88.0769 115.283 85.3503 117.989 82.2147 117.989C79.0725 118.195 76.3459 115.276 76.3459 112.157C76.1381 109.031 78.8583 106.318 82.2147 106.318M47.872 61.7287H78.8713C87.4537 61.7287 94.1599 54.6437 94.1599 45.8925V16.9261C94.1599 8.80132 87.0382 2.54949 78.8648 1.08987C68.6074 -0.363291 57.2919 -0.363291 47.872 1.08987C34.6738 3.38264 32.5768 8.17484 32.5768 16.9261V28.5966H63.5761V32.3426H21.2613C12.4646 32.3426 4.50545 37.9744 2.20079 47.9721C-0.733596 59.6426 -0.733596 66.9343 2.20079 79.0246C4.50545 88.1957 9.53674 94.6542 18.7489 94.6542H28.805V80.6909C28.5908 70.48 37.6016 61.7287 47.8655 61.7287M45.9828 20.6785C44.4373 20.6472 42.9637 20.0229 41.8701 18.9361C40.7764 17.8492 40.1472 16.384 40.1141 14.8465C40.1141 11.7206 42.8407 9.00799 45.9763 9.00799C49.112 9.00799 51.8451 11.7206 51.8451 14.8465C51.8451 17.9724 49.1249 20.6785 45.9828 20.6785Z" fill="white"/>
</svg>
