<svg width="123" height="131" viewBox="0 0 123 131" fill="none" xmlns="http://www.w3.org/2000/svg">
<path fill-rule="evenodd" clip-rule="evenodd" d="M39.4439 101.025C39.4439 101.025 33.0779 103.933 43.9586 104.903C57.1449 106.076 63.8681 105.923 78.3862 103.755C78.3862 103.755 82.2187 105.643 87.5452 107.275C55.0013 118.22 13.8829 106.638 39.4439 101.025ZM35.4813 86.7132C35.4813 86.7132 28.3685 90.8461 39.249 91.739C53.3125 92.887 64.4527 92.9636 83.6802 90.0552C83.6802 90.0552 86.3434 92.1727 90.5333 93.3207C51.1363 102.377 7.28972 94.0606 35.4813 86.7132ZM68.9998 62.452C77.0221 69.6972 66.8885 76.228 66.8885 76.228C66.8885 76.228 87.2529 67.9622 77.899 57.6303C69.1619 47.9868 62.4714 43.1908 98.718 26.6848C98.7504 26.6848 41.815 37.859 68.9998 62.452ZM112.067 111.587C112.067 111.587 116.776 114.623 106.903 116.995C88.0973 121.46 28.6935 122.812 12.1941 117.174C6.25039 115.158 17.3907 112.327 20.8985 111.74C24.536 111.127 26.6473 111.23 26.6473 111.23C20.0539 107.581 -15.9978 118.398 8.32904 121.485C74.651 129.955 129.281 117.684 112.067 111.587ZM42.497 71.8912C42.497 71.8912 12.259 77.5291 31.7788 79.57C40.0285 80.4374 56.4628 80.2334 71.7606 79.2384C84.2649 78.422 96.8342 76.6362 96.8342 76.6362C96.8342 76.6362 92.4169 78.1159 89.234 79.8252C58.5414 86.1776 -0.732606 83.2182 16.3187 76.7382C30.7717 71.2787 42.4968 71.891 42.4968 71.891M96.7367 95.6932C127.949 82.963 113.496 70.7176 103.428 72.3757C100.959 72.7839 99.8548 73.1411 99.8548 73.1411C99.8548 73.1411 100.764 72.0186 102.518 71.5339C122.428 66.0233 137.758 87.7592 96.0872 96.3565C96.0872 96.331 96.5744 95.9993 96.7367 95.6932ZM77.899 0C77.899 0 95.1777 13.5722 61.4971 34.4402C34.5069 51.1759 55.3261 60.7427 61.4971 71.636C45.7448 60.4619 34.1824 50.64 41.9449 41.4815C53.345 28.088 84.882 21.5571 77.899 0ZM45.5823 130.21C75.528 131.715 121.518 129.368 122.59 118.245C122.59 118.245 120.511 122.455 97.8411 125.822C72.28 129.598 40.7431 129.164 22.0677 126.74C22.0677 126.715 25.9002 129.215 45.5823 130.21Z" fill="white"/>
</svg>
