<svg width="48" height="42" viewBox="0 0 48 42" fill="none" xmlns="http://www.w3.org/2000/svg">
<path d="M43.9434 34.1971C44.9107 34.1976 45.8408 34.56 46.5408 35.2094C47.2409 35.8587 47.6573 36.7451 47.7038 37.685C47.7503 38.6249 47.4233 39.5461 46.7905 40.2578C46.1578 40.9695 45.2678 41.4172 44.305 41.508L43.9434 41.5251H3.76658C2.79928 41.5246 1.86924 41.1621 1.16918 40.5128C0.469119 39.8635 0.0527019 38.977 0.00621671 38.0372C-0.0402685 37.0973 0.286742 36.1761 0.919486 35.4644C1.55223 34.7526 2.4422 34.305 3.40499 34.2142L3.76658 34.1971H43.9434ZM43.9434 17.0986C44.9424 17.0986 45.9004 17.4846 46.6068 18.1717C47.3132 18.8588 47.71 19.7908 47.71 20.7625C47.71 21.7343 47.3132 22.6662 46.6068 23.3534C45.9004 24.0405 44.9424 24.4265 43.9434 24.4265H3.76658C2.76762 24.4265 1.80958 24.0405 1.10321 23.3534C0.396835 22.6662 0 21.7343 0 20.7625C0 19.7908 0.396835 18.8588 1.10321 18.1717C1.80958 17.4846 2.76762 17.0986 3.76658 17.0986H43.9434ZM43.9434 0C44.9424 0 45.9004 0.386025 46.6068 1.07315C47.3132 1.76028 47.71 2.69223 47.71 3.66398C47.71 4.63572 47.3132 5.56767 46.6068 6.2548C45.9004 6.94193 44.9424 7.32795 43.9434 7.32795H3.76658C2.76762 7.32795 1.80958 6.94193 1.10321 6.2548C0.396835 5.56767 0 4.63572 0 3.66398C0 2.69223 0.396835 1.76028 1.10321 1.07315C1.80958 0.386025 2.76762 0 3.76658 0H43.9434Z" fill="#BBDE1A"/>
</svg>
