<svg width="51" height="51" viewBox="0 0 51 51" fill="none" xmlns="http://www.w3.org/2000/svg">
<path d="M25.21 38.0923L12.4645 25.3505L15.0144 22.7574L23.4093 31.1524V0H27.0107V31.1524L35.402 22.761L37.9555 25.3505L25.21 38.0923ZM5.81991 50.42C4.16085 50.42 2.7767 49.8654 1.66746 48.7561C0.558221 47.6469 0.00240095 46.2616 0 44.6001V35.8738H3.60143V44.6001C3.60143 45.1547 3.83192 45.6637 4.2929 46.1271C4.75389 46.5905 5.26169 46.821 5.81631 46.8186H44.6037C45.1559 46.8186 45.6637 46.5881 46.1271 46.1271C46.5905 45.6661 46.821 45.1571 46.8186 44.6001V35.8738H50.42V44.6001C50.42 46.2592 49.8654 47.6433 48.7561 48.7525C47.6469 49.8618 46.2616 50.4176 44.6001 50.42H5.81991Z" fill="#BBDE1A"/>
</svg>
