<svg width="60" height="59" viewBox="0 0 60 59" fill="none" xmlns="http://www.w3.org/2000/svg">
<path d="M29.585 0C25.6998 0 21.8527 0.774827 18.2633 2.28024C14.6739 3.78566 11.4125 5.99218 8.66525 8.77382C3.11698 14.3916 0 22.0109 0 29.9557C0 43.1961 8.4909 54.4295 20.2361 58.4136C21.7154 58.6532 22.1887 57.7246 22.1887 56.9158V51.8533C13.9937 53.6506 12.2482 47.8392 12.2482 47.8392C10.8873 44.3644 8.96426 43.4358 8.96426 43.4358C6.27202 41.5785 9.17135 41.6384 9.17135 41.6384C12.1298 41.8481 13.6979 44.7239 13.6979 44.7239C16.2717 49.2771 20.6207 47.9291 22.3071 47.2102C22.5734 45.2631 23.3426 43.945 24.1709 43.1961C17.6031 42.4472 10.7098 39.871 10.7098 28.4579C10.7098 25.1328 11.834 22.4668 13.757 20.3399C13.4612 19.591 12.4257 16.4756 14.0529 12.4316C14.0529 12.4316 16.538 11.6228 22.1887 15.4871C24.526 14.8281 27.0703 14.4986 29.585 14.4986C32.0997 14.4986 34.644 14.8281 36.9812 15.4871C42.632 11.6228 45.1171 12.4316 45.1171 12.4316C46.7443 16.4756 45.7088 19.591 45.413 20.3399C47.336 22.4668 48.4602 25.1328 48.4602 28.4579C48.4602 39.901 41.5373 42.4173 34.9399 43.1662C36.0049 44.0948 36.9812 45.9221 36.9812 48.708V56.9158C36.9812 57.7246 37.4546 58.6832 38.9634 58.4136C50.7087 54.3995 59.17 43.1961 59.17 29.9557C59.17 26.0219 58.4048 22.1265 56.918 18.4921C55.4312 14.8578 53.252 11.5555 50.5048 8.77382C47.7575 5.99218 44.4961 3.78566 40.9067 2.28024C37.3173 0.774827 33.4702 0 29.585 0Z" fill="#161716"/>
</svg>
