<svg width="57" height="57" viewBox="0 0 57 57" fill="none" xmlns="http://www.w3.org/2000/svg">
<path d="M50 0C51.6576 0 53.2473 0.65848 54.4194 1.83058C55.5915 3.00268 56.25 4.5924 56.25 6.25V50C56.25 51.6576 55.5915 53.2473 54.4194 54.4194C53.2473 55.5915 51.6576 56.25 50 56.25H6.25C4.5924 56.25 3.00268 55.5915 1.83058 54.4194C0.65848 53.2473 0 51.6576 0 50V6.25C0 4.5924 0.65848 3.00268 1.83058 1.83058C3.00268 0.65848 4.5924 0 6.25 0H50ZM48.4375 48.4375V31.875C48.4375 29.1731 47.3642 26.5819 45.4537 24.6713C43.5431 22.7608 40.9519 21.6875 38.25 21.6875C35.5938 21.6875 32.5 23.3125 31 25.75V22.2812H22.2812V48.4375H31V33.0312C31 30.625 32.9375 28.6562 35.3438 28.6562C36.5041 28.6562 37.6169 29.1172 38.4373 29.9377C39.2578 30.7581 39.7188 31.8709 39.7188 33.0312V48.4375H48.4375ZM12.125 17.375C13.5174 17.375 14.8527 16.8219 15.8373 15.8373C16.8219 14.8527 17.375 13.5174 17.375 12.125C17.375 9.21875 15.0312 6.84375 12.125 6.84375C10.7243 6.84375 9.38102 7.40017 8.39059 8.39059C7.40017 9.38102 6.84375 10.7243 6.84375 12.125C6.84375 15.0312 9.21875 17.375 12.125 17.375ZM16.4688 48.4375V22.2812H7.8125V48.4375H16.4688Z" fill="#161716"/>
</svg>
