<svg width="53" height="42" viewBox="0 0 53 42" fill="none" xmlns="http://www.w3.org/2000/svg">
<path d="M26.04 12.564C24.1565 12.564 22.3501 13.4465 21.0183 15.0173C19.6864 16.5881 18.9382 18.7185 18.9382 20.94C18.9382 23.1615 19.6864 25.2919 21.0183 26.8627C22.3501 28.4335 24.1565 29.316 26.04 29.316C27.9235 29.316 29.7299 28.4335 31.0617 26.8627C32.3936 25.2919 33.1418 23.1615 33.1418 20.94C33.1418 18.7185 32.3936 16.5881 31.0617 15.0173C29.7299 13.4465 27.9235 12.564 26.04 12.564ZM26.04 34.9C22.9008 34.9 19.8902 33.4292 17.6704 30.8112C15.4507 28.1932 14.2036 24.6424 14.2036 20.94C14.2036 17.2376 15.4507 13.6868 17.6704 11.0688C19.8902 8.45078 22.9008 6.98 26.04 6.98C29.1792 6.98 32.1898 8.45078 34.4096 11.0688C36.6293 13.6868 37.8764 17.2376 37.8764 20.94C37.8764 24.6424 36.6293 28.1932 34.4096 30.8112C32.1898 33.4292 29.1792 34.9 26.04 34.9ZM26.04 0C14.2036 0 4.09538 8.68312 0 20.94C4.09538 33.1969 14.2036 41.88 26.04 41.88C37.8764 41.88 47.9846 33.1969 52.08 20.94C47.9846 8.68312 37.8764 0 26.04 0Z" fill="#161716"/>
</svg>
