<svg width="125" height="125" viewBox="0 0 125 125" fill="none" xmlns="http://www.w3.org/2000/svg">
<path d="M0 0V124.18H124.18V0H0ZM65.6853 105.814C63.8524 109.539 60.3535 111.986 56.2992 113.167C50.0694 114.597 44.1107 113.782 39.678 111.121C36.7116 109.301 34.3949 106.5 32.8223 103.272L42.2798 97.4803C42.3623 97.5151 42.6106 97.9641 42.9424 98.5443C44.1485 100.565 45.1886 101.995 47.2331 103C49.2418 103.685 53.6517 104.123 55.3545 100.589C56.3946 98.7907 56.0638 93.0108 56.0638 86.6161C56.0628 76.5674 56.1095 66.5605 56.1095 56.6261H67.7417C67.7417 67.5539 67.8013 77.9036 67.7417 88.5672C67.7665 95.104 68.3338 100.932 65.6853 105.814ZM113.941 102.528C109.897 116.359 87.3542 116.808 78.3457 107.67C76.4422 105.519 75.2491 104.396 74.1136 101.913C78.901 99.1592 78.901 99.1592 83.5592 96.464C86.0895 100.353 88.4291 102.492 92.6383 103.367C98.3486 104.065 104.094 102.103 102.805 96.0378C101.481 91.0845 91.1124 89.8795 84.056 84.5825C76.8923 79.7712 75.2133 68.0804 81.1005 61.4006C83.0625 58.9299 86.4084 57.086 89.9192 56.1999L93.583 55.726C100.618 55.584 105.015 57.4417 108.242 61.0459C109.14 61.9559 109.873 62.9374 111.244 65.0644C107.497 67.4526 107.509 67.4297 102.142 70.9048C100.995 68.4351 99.0927 66.8853 97.0819 66.2118C93.9605 65.266 90.0245 66.2942 89.2079 69.5925C88.9248 70.6087 88.9834 71.5545 89.4334 73.2334C90.6981 76.1174 94.9421 77.3711 98.7489 79.1205C109.708 83.5652 113.408 88.3307 114.318 94.0033C115.194 98.887 114.107 102.055 113.941 102.528Z" fill="white"/>
</svg>
