<svg width="135" height="128" viewBox="0 0 135 128" fill="none" xmlns="http://www.w3.org/2000/svg">
<path d="M66.2063 58.9204H56.0025V38.5887H68.1075C74.6888 38.5887 78.4238 42.0822 78.4238 48.3999C78.4238 55.1459 74.0756 58.9204 66.195 58.9204H66.2063ZM68.0287 66.9915H56.0081V89.3979H68.5575C76.7644 89.3979 81.1125 85.4828 81.1125 78.1211C81.1125 70.7594 76.6406 66.9915 68.0287 66.9915ZM135 59.9243V68.0757C128.655 68.7985 124.779 74.3934 122.479 83.2542C120.189 92.0816 119.874 102.91 120.116 111.269C120.369 119.969 114.671 128 106.971 128H28.0406C20.3344 128 14.6363 119.969 14.895 111.269C15.1369 102.91 14.8219 92.0816 12.5325 83.2542C10.2262 74.3934 6.345 68.7985 0 68.0757V59.9243C6.345 59.2015 10.2319 53.6066 12.5269 44.7458C14.8219 35.9184 15.1369 25.09 14.8894 16.7311C14.6363 8.03095 20.3344 0 28.0406 0H106.971C114.677 0 120.369 8.03095 120.116 16.7311C119.874 25.09 120.189 35.9184 122.479 44.7458C124.779 53.6066 128.655 59.2015 135 59.9243ZM90.4106 78.777C90.4106 69.7154 85.05 63.1634 77.0906 62.1261V61.7446C82.9406 60.6136 87.5306 54.1487 87.5306 46.9342C87.5306 36.6479 80.7075 29.9488 70.3069 29.9488H46.9069V98.0245H70.425C82.9013 98.0245 90.4106 90.7565 90.4106 78.777Z" fill="white"/>
</svg>
