<svg width="129" height="118" viewBox="0 0 129 118" fill="none" xmlns="http://www.w3.org/2000/svg">
<path d="M64.5 0C47.2785 0 36.5715 13.0783 32.25 39.3333C38.7 26.255 46.2465 21.3383 54.825 24.5833C59.727 26.4517 63.2745 31.86 67.1445 37.8583C73.4655 47.6917 80.625 59 96.75 59C113.971 59 124.678 45.9217 129 19.6667C122.55 32.745 115.003 37.6617 106.425 34.4167C101.523 32.5483 98.04 27.14 94.1055 21.1417C87.7845 11.3083 80.625 0 64.5 0ZM32.25 59C15.0285 59 4.3215 72.0783 0 98.3333C6.45 85.255 13.9965 80.3383 22.575 83.5833C27.477 85.4517 30.96 90.86 34.8945 96.8583C41.2155 106.692 48.375 118 64.5 118C81.7215 118 92.4285 104.922 96.75 78.6667C90.3 91.745 82.7535 96.6617 74.175 93.4167C69.273 91.5483 65.79 86.14 61.8555 80.1417C55.5345 70.3083 48.375 59 32.25 59Z" fill="white"/>
</svg>
