<svg width="126" height="129" viewBox="0 0 126 129" fill="none" xmlns="http://www.w3.org/2000/svg">
<path d="M0 0L11.2516 115.256L62.5315 128.44L113.607 115.256L125.08 0H0ZM101.435 27.3398L100.616 34.6263L100.327 37.6366H40.4204L41.8184 52.1787H98.9457L98.3831 55.9301L94.7689 93.3197L94.4791 95.8206L62.5997 103.786V103.833H62.3951L62.344 103.848V103.833H62.3269L30.1747 95.8051L28.2312 73.4825H43.7618L44.8699 84.7828L62.3269 89.0589H62.3951L79.7839 84.7982L81.7273 66.4893H62.344V66.4739H27.4129L23.526 27.3398L23.2362 23.5885H101.707L101.435 27.3398Z" fill="white"/>
</svg>
