<svg width="28" height="26" viewBox="0 0 28 26" fill="none" xmlns="http://www.w3.org/2000/svg">
<path d="M13.125 14.2188V22.9688H2.1875V14.2188H13.125ZM13.125 12.0312H2.1875C1.60734 12.0312 1.05094 12.2617 0.640704 12.672C0.230468 13.0822 0 13.6386 0 14.2188V22.9688C0 23.5489 0.230468 24.1053 0.640704 24.5155C1.05094 24.9258 1.60734 25.1562 2.1875 25.1562H13.125C13.7052 25.1562 14.2616 24.9258 14.6718 24.5155C15.082 24.1053 15.3125 23.5489 15.3125 22.9688V14.2188C15.3125 13.6386 15.082 13.0822 14.6718 12.672C14.2616 12.2617 13.7052 12.0312 13.125 12.0312ZM25.1562 2.1875V7.65625H14.2188V2.1875H25.1562ZM25.1562 0H14.2188C13.6386 0 13.0822 0.230468 12.672 0.640704C12.2617 1.05094 12.0312 1.60734 12.0312 2.1875V7.65625C12.0312 8.23641 12.2617 8.79281 12.672 9.20305C13.0822 9.61328 13.6386 9.84375 14.2188 9.84375H25.1562C25.7364 9.84375 26.2928 9.61328 26.703 9.20305C27.1133 8.79281 27.3438 8.23641 27.3438 7.65625V2.1875C27.3438 1.60734 27.1133 1.05094 26.703 0.640704C26.2928 0.230468 25.7364 0 25.1562 0ZM25.1562 14.2188V19.6875H19.6875V14.2188H25.1562ZM25.1562 12.0312H19.6875C19.1073 12.0312 18.5509 12.2617 18.1407 12.672C17.7305 13.0822 17.5 13.6386 17.5 14.2188V19.6875C17.5 20.2677 17.7305 20.8241 18.1407 21.2343C18.5509 21.6445 19.1073 21.875 19.6875 21.875H25.1562C25.7364 21.875 26.2928 21.6445 26.703 21.2343C27.1133 20.8241 27.3438 20.2677 27.3438 19.6875V14.2188C27.3438 13.6386 27.1133 13.0822 26.703 12.672C26.2928 12.2617 25.7364 12.0312 25.1562 12.0312ZM7.65625 2.1875V7.65625H2.1875V2.1875H7.65625ZM7.65625 0H2.1875C1.60734 0 1.05094 0.230468 0.640704 0.640704C0.230468 1.05094 0 1.60734 0 2.1875V7.65625C0 8.23641 0.230468 8.79281 0.640704 9.20305C1.05094 9.61328 1.60734 9.84375 2.1875 9.84375H7.65625C8.23641 9.84375 8.79281 9.61328 9.20305 9.20305C9.61328 8.79281 9.84375 8.23641 9.84375 7.65625V2.1875C9.84375 1.60734 9.61328 1.05094 9.20305 0.640704C8.79281 0.230468 8.23641 0 7.65625 0Z" fill="#BBDE1A"/>
</svg>
