<svg width="24" height="24" viewBox="0 0 24 24" fill="none" xmlns="http://www.w3.org/2000/svg">
<path d="M2.91625 20.832H7.29062V14.112C7.29062 13.7312 7.4306 13.4122 7.71056 13.1551C7.99052 12.8979 8.33659 12.7689 8.74875 12.768H14.5812C14.9944 12.768 15.3409 12.897 15.6209 13.1551C15.9008 13.4131 16.0403 13.7321 16.0394 14.112V20.832H20.4137V8.736L11.665 2.688L2.91625 8.736V20.832ZM0 20.832V8.736C0 8.3104 0.103527 7.9072 0.31058 7.5264C0.517634 7.1456 0.802941 6.832 1.1665 6.5856L9.91525 0.5376C10.4256 0.1792 11.0088 0 11.665 0C12.3212 0 12.9044 0.1792 13.4147 0.5376L22.1635 6.5856C22.528 6.832 22.8138 7.1456 23.0209 7.5264C23.2279 7.9072 23.331 8.3104 23.33 8.736V20.832C23.33 21.5712 23.0442 22.2042 22.4726 22.7311C21.901 23.2579 21.2147 23.5209 20.4137 23.52H14.5812C14.1681 23.52 13.8221 23.391 13.5431 23.1329C13.2641 22.8749 13.1241 22.5559 13.1231 22.176V15.456H10.2069V22.176C10.2069 22.5568 10.0669 22.8762 9.78693 23.1343C9.50697 23.3923 9.16091 23.5209 8.74875 23.52H2.91625C2.11428 23.52 1.42799 23.257 0.857377 22.7311C0.286764 22.2051 0.000972083 21.5721 0 20.832Z" fill="#BBDE1A"/>
</svg>
