<svg width="25" height="25" viewBox="0 0 25 25" fill="none" xmlns="http://www.w3.org/2000/svg">
<path d="M5.25 0C3.85761 0 2.52226 0.553124 1.53769 1.53769C0.553124 2.52226 0 3.85761 0 5.25V19.25C0 20.6424 0.553124 21.9777 1.53769 22.9623C2.52226 23.9469 3.85761 24.5 5.25 24.5H19.25C19.25 24.5 21.5 24.5 22.9623 22.9623C24.4246 21.4246 24.5 19.2511 24.5 19.2511H23.5H22.75C22.75 19.5 22.5 21 21.7249 21.7249C20.9497 22.4497 20 22.75 19.25 22.75C18.5 22.75 5.25 22.75 5.25 22.75C4.32174 22.75 3.5 22.5 2.77513 21.7249C2.05025 20.9497 1.75 20.1783 1.75 19.25V7H22.75V19.2511H23.5H24.5V5.25C24.5 3.85761 23.9469 2.52226 22.9623 1.53769C21.9777 0.553124 20.6424 0 19.25 0H5.25ZM1.75 5.25C1.75 4.32174 2.11875 3.4315 2.77513 2.77513C3.4315 2.11875 4.32174 1.75 5.25 1.75H19.25C20.1783 1.75 21.0685 2.11875 21.7249 2.77513C22.3813 3.4315 22.75 4.32174 22.75 5.25H1.75ZM10.682 9.0055C10.7635 9.08678 10.8281 9.18334 10.8722 9.28964C10.9164 9.39595 10.9391 9.50991 10.9391 9.625C10.9391 9.74009 10.9164 9.85405 10.8722 9.96036C10.8281 10.0667 10.7635 10.1632 10.682 10.2445L6.92475 14L10.682 17.7555C10.8463 17.9198 10.9386 18.1426 10.9386 18.375C10.9386 18.6074 10.8463 18.8302 10.682 18.9945C10.5177 19.1588 10.2949 19.2511 10.0625 19.2511C9.83014 19.2511 9.6073 19.1588 9.443 18.9945L5.068 14.6195C4.98651 14.5382 4.92186 14.4417 4.87775 14.3354C4.83364 14.2291 4.81094 14.1151 4.81094 14C4.81094 13.8849 4.83364 13.7709 4.87775 13.6646C4.92186 13.5583 4.98651 13.4618 5.068 13.3805L9.443 9.0055C9.52428 8.92402 9.62084 8.85937 9.72714 8.81525C9.83345 8.77114 9.94741 8.74844 10.0625 8.74844C10.1776 8.74844 10.2916 8.77114 10.3979 8.81525C10.5042 8.85937 10.6007 8.92402 10.682 9.0055ZM15.057 9.0055C14.8927 8.8412 14.6699 8.7489 14.4375 8.7489C14.2051 8.7489 13.9823 8.8412 13.818 9.0055C13.6537 9.1698 13.5614 9.39264 13.5614 9.625C13.5614 9.85736 13.6537 10.0802 13.818 10.2445L17.5753 14L13.818 17.7555C13.7366 17.8369 13.6721 17.9334 13.6281 18.0397C13.5841 18.146 13.5614 18.26 13.5614 18.375C13.5614 18.4901 13.5841 18.604 13.6281 18.7103C13.6721 18.8166 13.7366 18.9131 13.818 18.9945C13.8994 19.0759 13.9959 19.1404 14.1022 19.1844C14.2085 19.2284 14.3224 19.2511 14.4375 19.2511C14.5526 19.2511 14.6665 19.2284 14.7728 19.1844C14.8791 19.1404 14.9756 19.0759 15.057 18.9945L19.432 14.6195C19.5135 14.5382 19.5781 14.4417 19.6222 14.3354C19.6664 14.2291 19.6891 14.1151 19.6891 14C19.6891 13.8849 19.6664 13.7709 19.6222 13.6646C19.5781 13.5583 19.5135 13.4618 19.432 13.3805L15.057 9.0055Z" fill="#BBDE1A"/>
</svg>
